<svg width="440" height="82" viewBox="0 0 440 82" fill="none" xmlns="http://www.w3.org/2000/svg">
<path d="M3.024 8.352V11.616H6.864V13.104H3.024V16.512H7.344V18H1.2V6.864H7.344V8.352H3.024ZM16.3586 11.44V12.976H9.78263V11.44H16.3586ZM29.622 9.04C30.3153 9.04 30.934 9.184 31.478 9.472C32.0327 9.76 32.4647 10.1867 32.774 10.752C33.094 11.3173 33.254 12 33.254 12.8V18H31.446V13.072C31.446 12.2827 31.2487 11.68 30.854 11.264C30.4593 10.8373 29.9207 10.624 29.238 10.624C28.5553 10.624 28.0113 10.8373 27.606 11.264C27.2113 11.68 27.014 12.2827 27.014 13.072V18H25.206V13.072C25.206 12.2827 25.0087 11.68 24.614 11.264C24.2193 10.8373 23.6807 10.624 22.998 10.624C22.3153 10.624 21.7713 10.8373 21.366 11.264C20.9713 11.68 20.774 12.2827 20.774 13.072V18H18.95V9.184H20.774V10.192C21.0727 9.82933 21.4513 9.54667 21.91 9.344C22.3687 9.14133 22.8593 9.04 23.382 9.04C24.086 9.04 24.7153 9.18933 25.27 9.488C25.8247 9.78667 26.2513 10.2187 26.55 10.784C26.8167 10.2507 27.2327 9.82933 27.798 9.52C28.3633 9.2 28.9713 9.04 29.622 9.04ZM34.967 13.552C34.967 12.6667 35.1483 11.8827 35.511 11.2C35.8843 10.5173 36.3857 9.98933 37.015 9.616C37.655 9.232 38.359 9.04 39.127 9.04C39.8203 9.04 40.423 9.17867 40.935 9.456C41.4577 9.72267 41.8737 10.0587 42.183 10.464V9.184H44.023V18H42.183V16.688C41.8737 17.104 41.4523 17.4507 40.919 17.728C40.3857 18.0053 39.7777 18.144 39.095 18.144C38.3377 18.144 37.6443 17.952 37.015 17.568C36.3857 17.1733 35.8843 16.6293 35.511 15.936C35.1483 15.232 34.967 14.4373 34.967 13.552ZM42.183 13.584C42.183 12.976 42.055 12.448 41.799 12C41.5537 11.552 41.2283 11.2107 40.823 10.976C40.4177 10.7413 39.9803 10.624 39.511 10.624C39.0417 10.624 38.6043 10.7413 38.199 10.976C37.7937 11.2 37.463 11.536 37.207 11.984C36.9617 12.4213 36.839 12.944 36.839 13.552C36.839 14.16 36.9617 14.6933 37.207 15.152C37.463 15.6107 37.7937 15.9627 38.199 16.208C38.615 16.4427 39.0523 16.56 39.511 16.56C39.9803 16.56 40.4177 16.4427 40.823 16.208C41.2283 15.9733 41.5537 15.632 41.799 15.184C42.055 14.7253 42.183 14.192 42.183 13.584ZM47.3468 8.016C47.0161 8.016 46.7388 7.904 46.5148 7.68C46.2908 7.456 46.1788 7.17867 46.1788 6.848C46.1788 6.51733 46.2908 6.24 46.5148 6.016C46.7388 5.792 47.0161 5.68 47.3468 5.68C47.6668 5.68 47.9388 5.792 48.1628 6.016C48.3868 6.24 48.4988 6.51733 48.4988 6.848C48.4988 7.17867 48.3868 7.456 48.1628 7.68C47.9388 7.904 47.6668 8.016 47.3468 8.016ZM48.2428 9.184V18H46.4188V9.184H48.2428ZM52.4615 6.16V18H50.6375V6.16H52.4615ZM62.8365 18.144C62.0045 18.144 61.2525 17.9573 60.5805 17.584C59.9085 17.2 59.3805 16.6667 58.9965 15.984C58.6125 15.2907 58.4205 14.4907 58.4205 13.584C58.4205 12.688 58.6178 11.8933 59.0125 11.2C59.4072 10.5067 59.9458 9.97333 60.6285 9.6C61.3112 9.22667 62.0738 9.04 62.9165 9.04C63.7592 9.04 64.5218 9.22667 65.2045 9.6C65.8872 9.97333 66.4258 10.5067 66.8205 11.2C67.2152 11.8933 67.4125 12.688 67.4125 13.584C67.4125 14.48 67.2098 15.2747 66.8045 15.968C66.3992 16.6613 65.8445 17.2 65.1405 17.584C64.4472 17.9573 63.6792 18.144 62.8365 18.144ZM62.8365 16.56C63.3058 16.56 63.7432 16.448 64.1485 16.224C64.5645 16 64.9005 15.664 65.1565 15.216C65.4125 14.768 65.5405 14.224 65.5405 13.584C65.5405 12.944 65.4178 12.4053 65.1725 11.968C64.9272 11.52 64.6018 11.184 64.1965 10.96C63.7912 10.736 63.3538 10.624 62.8845 10.624C62.4152 10.624 61.9778 10.736 61.5725 10.96C61.1778 11.184 60.8632 11.52 60.6285 11.968C60.3938 12.4053 60.2765 12.944 60.2765 13.584C60.2765 14.5333 60.5165 15.2693 60.9965 15.792C61.4872 16.304 62.1005 16.56 62.8365 16.56ZM71.0396 10.464C71.3063 10.016 71.6583 9.66933 72.0956 9.424C72.5436 9.168 73.0716 9.04 73.6796 9.04V10.928H73.2156C72.501 10.928 71.957 11.1093 71.5836 11.472C71.221 11.8347 71.0396 12.464 71.0396 13.36V18H69.2156V9.184H71.0396V10.464ZM81.3365 10.48C81.6458 10.0747 82.0672 9.73333 82.6005 9.456C83.1338 9.17867 83.7365 9.04 84.4085 9.04C85.1765 9.04 85.8752 9.232 86.5045 9.616C87.1445 9.98933 87.6458 10.5173 88.0085 11.2C88.3712 11.8827 88.5525 12.6667 88.5525 13.552C88.5525 14.4373 88.3712 15.232 88.0085 15.936C87.6458 16.6293 87.1445 17.1733 86.5045 17.568C85.8752 17.952 85.1765 18.144 84.4085 18.144C83.7365 18.144 83.1392 18.0107 82.6165 17.744C82.0938 17.4667 81.6672 17.1253 81.3365 16.72V22.192H79.5125V9.184H81.3365V10.48ZM86.6965 13.552C86.6965 12.944 86.5685 12.4213 86.3125 11.984C86.0672 11.536 85.7365 11.2 85.3205 10.976C84.9152 10.7413 84.4778 10.624 84.0085 10.624C83.5498 10.624 83.1125 10.7413 82.6965 10.976C82.2912 11.2107 81.9605 11.552 81.7045 12C81.4592 12.448 81.3365 12.976 81.3365 13.584C81.3365 14.192 81.4592 14.7253 81.7045 15.184C81.9605 15.632 82.2912 15.9733 82.6965 16.208C83.1125 16.4427 83.5498 16.56 84.0085 16.56C84.4778 16.56 84.9152 16.4427 85.3205 16.208C85.7365 15.9627 86.0672 15.6107 86.3125 15.152C86.5685 14.6933 86.6965 14.16 86.6965 13.552ZM94.9163 9.04C95.5883 9.04 96.1856 9.184 96.7083 9.472C97.2416 9.76 97.6576 10.1867 97.9563 10.752C98.2656 11.3173 98.4203 12 98.4203 12.8V18H96.6123V13.072C96.6123 12.2827 96.4149 11.68 96.0203 11.264C95.6256 10.8373 95.0869 10.624 94.4043 10.624C93.7216 10.624 93.1776 10.8373 92.7723 11.264C92.3776 11.68 92.1803 12.2827 92.1803 13.072V18H90.3563V6.16H92.1803V10.208C92.4896 9.83467 92.8789 9.54667 93.3483 9.344C93.8283 9.14133 94.3509 9.04 94.9163 9.04ZM104.571 18.144C103.739 18.144 102.987 17.9573 102.315 17.584C101.643 17.2 101.115 16.6667 100.731 15.984C100.347 15.2907 100.155 14.4907 100.155 13.584C100.155 12.688 100.352 11.8933 100.747 11.2C101.142 10.5067 101.68 9.97333 102.363 9.6C103.046 9.22667 103.808 9.04 104.651 9.04C105.494 9.04 106.256 9.22667 106.939 9.6C107.622 9.97333 108.16 10.5067 108.555 11.2C108.95 11.8933 109.147 12.688 109.147 13.584C109.147 14.48 108.944 15.2747 108.539 15.968C108.134 16.6613 107.579 17.2 106.875 17.584C106.182 17.9573 105.414 18.144 104.571 18.144ZM104.571 16.56C105.04 16.56 105.478 16.448 105.883 16.224C106.299 16 106.635 15.664 106.891 15.216C107.147 14.768 107.275 14.224 107.275 13.584C107.275 12.944 107.152 12.4053 106.907 11.968C106.662 11.52 106.336 11.184 105.931 10.96C105.526 10.736 105.088 10.624 104.619 10.624C104.15 10.624 103.712 10.736 103.307 10.96C102.912 11.184 102.598 11.52 102.363 11.968C102.128 12.4053 102.011 12.944 102.011 13.584C102.011 14.5333 102.251 15.2693 102.731 15.792C103.222 16.304 103.835 16.56 104.571 16.56ZM115.398 9.04C116.091 9.04 116.71 9.184 117.254 9.472C117.809 9.76 118.241 10.1867 118.55 10.752C118.859 11.3173 119.014 12 119.014 12.8V18H117.206V13.072C117.206 12.2827 117.009 11.68 116.614 11.264C116.219 10.8373 115.681 10.624 114.998 10.624C114.315 10.624 113.771 10.8373 113.366 11.264C112.971 11.68 112.774 12.2827 112.774 13.072V18H110.95V9.184H112.774V10.192C113.073 9.82933 113.451 9.54667 113.91 9.344C114.379 9.14133 114.875 9.04 115.398 9.04ZM129.421 13.376C129.421 13.7067 129.399 14.0053 129.357 14.272H122.621C122.674 14.976 122.935 15.5413 123.405 15.968C123.874 16.3947 124.45 16.608 125.133 16.608C126.114 16.608 126.807 16.1973 127.213 15.376H129.181C128.914 16.1867 128.429 16.8533 127.725 17.376C127.031 17.888 126.167 18.144 125.133 18.144C124.29 18.144 123.533 17.9573 122.861 17.584C122.199 17.2 121.677 16.6667 121.293 15.984C120.919 15.2907 120.733 14.4907 120.733 13.584C120.733 12.6773 120.914 11.8827 121.277 11.2C121.65 10.5067 122.167 9.97333 122.829 9.6C123.501 9.22667 124.269 9.04 125.133 9.04C125.965 9.04 126.706 9.22133 127.357 9.584C128.007 9.94667 128.514 10.4587 128.877 11.12C129.239 11.7707 129.421 12.5227 129.421 13.376ZM127.517 12.8C127.506 12.128 127.266 11.5893 126.797 11.184C126.327 10.7787 125.746 10.576 125.053 10.576C124.423 10.576 123.885 10.7787 123.437 11.184C122.989 11.5787 122.722 12.1173 122.637 12.8H127.517ZM139.82 9.04C140.513 9.04 141.132 9.184 141.676 9.472C142.231 9.76 142.663 10.1867 142.972 10.752C143.281 11.3173 143.436 12 143.436 12.8V18H141.628V13.072C141.628 12.2827 141.431 11.68 141.036 11.264C140.641 10.8373 140.103 10.624 139.42 10.624C138.737 10.624 138.193 10.8373 137.788 11.264C137.393 11.68 137.196 12.2827 137.196 13.072V18H135.372V9.184H137.196V10.192C137.495 9.82933 137.873 9.54667 138.332 9.344C138.801 9.14133 139.297 9.04 139.82 9.04ZM153.747 9.184V18H151.923V16.96C151.635 17.3227 151.256 17.6107 150.787 17.824C150.328 18.0267 149.837 18.128 149.315 18.128C148.621 18.128 147.997 17.984 147.443 17.696C146.899 17.408 146.467 16.9813 146.147 16.416C145.837 15.8507 145.683 15.168 145.683 14.368V9.184H147.491V14.096C147.491 14.8853 147.688 15.4933 148.083 15.92C148.477 16.336 149.016 16.544 149.699 16.544C150.381 16.544 150.92 16.336 151.315 15.92C151.72 15.4933 151.923 14.8853 151.923 14.096V9.184H153.747ZM166.825 9.04C167.518 9.04 168.137 9.184 168.681 9.472C169.236 9.76 169.668 10.1867 169.977 10.752C170.297 11.3173 170.457 12 170.457 12.8V18H168.649V13.072C168.649 12.2827 168.452 11.68 168.057 11.264C167.662 10.8373 167.124 10.624 166.441 10.624C165.758 10.624 165.214 10.8373 164.809 11.264C164.414 11.68 164.217 12.2827 164.217 13.072V18H162.409V13.072C162.409 12.2827 162.212 11.68 161.817 11.264C161.422 10.8373 160.884 10.624 160.201 10.624C159.518 10.624 158.974 10.8373 158.569 11.264C158.174 11.68 157.977 12.2827 157.977 13.072V18H156.153V9.184H157.977V10.192C158.276 9.82933 158.654 9.54667 159.113 9.344C159.572 9.14133 160.062 9.04 160.585 9.04C161.289 9.04 161.918 9.18933 162.473 9.488C163.028 9.78667 163.454 10.2187 163.753 10.784C164.02 10.2507 164.436 9.82933 165.001 9.52C165.566 9.2 166.174 9.04 166.825 9.04ZM174.602 10.496C174.911 10.0693 175.333 9.72267 175.866 9.456C176.41 9.17867 177.013 9.04 177.674 9.04C178.453 9.04 179.157 9.22667 179.786 9.6C180.415 9.97333 180.911 10.5067 181.274 11.2C181.637 11.8827 181.818 12.6667 181.818 13.552C181.818 14.4373 181.637 15.232 181.274 15.936C180.911 16.6293 180.41 17.1733 179.77 17.568C179.141 17.952 178.442 18.144 177.674 18.144C176.991 18.144 176.383 18.0107 175.85 17.744C175.327 17.4773 174.911 17.136 174.602 16.72V18H172.778V6.16H174.602V10.496ZM179.962 13.552C179.962 12.944 179.834 12.4213 179.578 11.984C179.333 11.536 179.002 11.2 178.586 10.976C178.181 10.7413 177.743 10.624 177.274 10.624C176.815 10.624 176.378 10.7413 175.962 10.976C175.557 11.2107 175.226 11.552 174.97 12C174.725 12.448 174.602 12.976 174.602 13.584C174.602 14.192 174.725 14.7253 174.97 15.184C175.226 15.632 175.557 15.9733 175.962 16.208C176.378 16.4427 176.815 16.56 177.274 16.56C177.743 16.56 178.181 16.4427 178.586 16.208C179.002 15.9627 179.333 15.6107 179.578 15.152C179.834 14.6933 179.962 14.16 179.962 13.552ZM191.702 13.376C191.702 13.7067 191.681 14.0053 191.638 14.272H184.902C184.955 14.976 185.217 15.5413 185.686 15.968C186.155 16.3947 186.731 16.608 187.414 16.608C188.395 16.608 189.089 16.1973 189.494 15.376H191.462C191.195 16.1867 190.71 16.8533 190.006 17.376C189.313 17.888 188.449 18.144 187.414 18.144C186.571 18.144 185.814 17.9573 185.142 17.584C184.481 17.2 183.958 16.6667 183.574 15.984C183.201 15.2907 183.014 14.4907 183.014 13.584C183.014 12.6773 183.195 11.8827 183.558 11.2C183.931 10.5067 184.449 9.97333 185.11 9.6C185.782 9.22667 186.55 9.04 187.414 9.04C188.246 9.04 188.987 9.22133 189.638 9.584C190.289 9.94667 190.795 10.4587 191.158 11.12C191.521 11.7707 191.702 12.5227 191.702 13.376ZM189.798 12.8C189.787 12.128 189.547 11.5893 189.078 11.184C188.609 10.7787 188.027 10.576 187.334 10.576C186.705 10.576 186.166 10.7787 185.718 11.184C185.27 11.5787 185.003 12.1173 184.918 12.8H189.798ZM195.321 10.464C195.588 10.016 195.94 9.66933 196.377 9.424C196.825 9.168 197.353 9.04 197.961 9.04V10.928H197.497C196.782 10.928 196.238 11.1093 195.865 11.472C195.502 11.8347 195.321 12.464 195.321 13.36V18H193.497V9.184H195.321V10.464Z" fill="#455360"/>
<g clip-path="url(#clip0_0_629)">
<path d="M432 7.99999V9.33333M432 18.6667C435.682 18.6667 438.667 15.682 438.667 12C438.667 8.31799 435.682 5.33333 432 5.33333C428.318 5.33333 425.333 8.31799 425.333 12C425.333 15.682 428.318 18.6667 432 18.6667ZM432 10.6667V16V10.6667Z" stroke="#455360" stroke-width="1.33333"/>
</g>
<rect y="34" width="440" height="48" rx="4" fill="#ECF2F7"/>
<path d="M30.096 53.848V55.032H27.056V65H25.6V55.032H22.544V53.848H30.096ZM39.4403 56.232L34.1603 69.128H32.6562L34.3843 64.904L30.8483 56.232H32.4643L35.2163 63.336L37.9363 56.232H39.4403ZM42.3599 57.848C42.6479 57.3467 43.0745 56.9307 43.6399 56.6C44.2159 56.2587 44.8825 56.088 45.6399 56.088C46.4185 56.088 47.1225 56.2747 47.7519 56.648C48.3919 57.0213 48.8932 57.5493 49.2559 58.232C49.6185 58.904 49.7999 59.688 49.7999 60.584C49.7999 61.4693 49.6185 62.2587 49.2559 62.952C48.8932 63.6453 48.3919 64.184 47.7519 64.568C47.1225 64.952 46.4185 65.144 45.6399 65.144C44.8932 65.144 44.2319 64.9787 43.6559 64.648C43.0905 64.3067 42.6585 63.8853 42.3599 63.384V69.16H40.9039V56.232H42.3599V57.848ZM48.3119 60.584C48.3119 59.9227 48.1785 59.3467 47.9119 58.856C47.6452 58.3653 47.2825 57.992 46.8239 57.736C46.3759 57.48 45.8799 57.352 45.3359 57.352C44.8025 57.352 44.3065 57.4853 43.8479 57.752C43.3999 58.008 43.0372 58.3867 42.7599 58.888C42.4932 59.3787 42.3599 59.9493 42.3599 60.6C42.3599 61.2613 42.4932 61.8427 42.7599 62.344C43.0372 62.8347 43.3999 63.2133 43.8479 63.48C44.3065 63.736 44.8025 63.864 45.3359 63.864C45.8799 63.864 46.3759 63.736 46.8239 63.48C47.2825 63.2133 47.6452 62.8347 47.9119 62.344C48.1785 61.8427 48.3119 61.256 48.3119 60.584ZM59.7164 60.28C59.7164 60.5573 59.7004 60.8507 59.6684 61.16H52.6604C52.7137 62.024 53.007 62.7013 53.5404 63.192C54.0844 63.672 54.7404 63.912 55.5084 63.912C56.1377 63.912 56.6604 63.768 57.0764 63.48C57.503 63.1813 57.8017 62.7867 57.9724 62.296H59.5404C59.3057 63.1387 58.8364 63.8267 58.1324 64.36C57.4284 64.8827 56.5537 65.144 55.5084 65.144C54.6764 65.144 53.9297 64.9573 53.2684 64.584C52.6177 64.2107 52.1057 63.6827 51.7324 63C51.359 62.3067 51.1724 61.5067 51.1724 60.6C51.1724 59.6933 51.3537 58.8987 51.7164 58.216C52.079 57.5333 52.5857 57.0107 53.2364 56.648C53.8977 56.2747 54.655 56.088 55.5084 56.088C56.3404 56.088 57.0764 56.2693 57.7164 56.632C58.3564 56.9947 58.847 57.496 59.1884 58.136C59.5404 58.7653 59.7164 59.48 59.7164 60.28ZM58.2124 59.976C58.2124 59.4213 58.0897 58.9467 57.8444 58.552C57.599 58.1467 57.263 57.8427 56.8364 57.64C56.4204 57.4267 55.9564 57.32 55.4444 57.32C54.7084 57.32 54.079 57.5547 53.5564 58.024C53.0444 58.4933 52.751 59.144 52.6764 59.976H58.2124ZM73.4559 56.232L68.1759 69.128H66.6719L68.3999 64.904L64.8639 56.232H66.4799L69.2319 63.336L71.9519 56.232H73.4559ZM78.7435 65.144C77.9222 65.144 77.1755 64.9573 76.5035 64.584C75.8422 64.2107 75.3195 63.6827 74.9355 63C74.5622 62.3067 74.3755 61.5067 74.3755 60.6C74.3755 59.704 74.5675 58.9147 74.9515 58.232C75.3462 57.5387 75.8795 57.0107 76.5515 56.648C77.2235 56.2747 77.9755 56.088 78.8075 56.088C79.6395 56.088 80.3915 56.2747 81.0635 56.648C81.7355 57.0107 82.2635 57.5333 82.6475 58.216C83.0422 58.8987 83.2395 59.6933 83.2395 60.6C83.2395 61.5067 83.0368 62.3067 82.6315 63C82.2368 63.6827 81.6982 64.2107 81.0155 64.584C80.3328 64.9573 79.5755 65.144 78.7435 65.144ZM78.7435 63.864C79.2662 63.864 79.7568 63.7413 80.2155 63.496C80.6742 63.2507 81.0422 62.8827 81.3195 62.392C81.6075 61.9013 81.7515 61.304 81.7515 60.6C81.7515 59.896 81.6128 59.2987 81.3355 58.808C81.0582 58.3173 80.6955 57.9547 80.2475 57.72C79.7995 57.4747 79.3142 57.352 78.7915 57.352C78.2582 57.352 77.7675 57.4747 77.3195 57.72C76.8822 57.9547 76.5302 58.3173 76.2635 58.808C75.9968 59.2987 75.8635 59.896 75.8635 60.6C75.8635 61.3147 75.9915 61.9173 76.2475 62.408C76.5142 62.8987 76.8662 63.2667 77.3035 63.512C77.7408 63.7467 78.2208 63.864 78.7435 63.864ZM92.9299 56.232V65H91.4739V63.704C91.1965 64.152 90.8072 64.504 90.3059 64.76C89.8152 65.0053 89.2712 65.128 88.6739 65.128C87.9912 65.128 87.3779 64.9893 86.8339 64.712C86.2899 64.424 85.8579 63.9973 85.5379 63.432C85.2285 62.8667 85.0739 62.1787 85.0739 61.368V56.232H86.5139V61.176C86.5139 62.04 86.7325 62.7067 87.1699 63.176C87.6072 63.6347 88.2045 63.864 88.9619 63.864C89.7405 63.864 90.3539 63.624 90.8019 63.144C91.2499 62.664 91.4739 61.9653 91.4739 61.048V56.232H92.9299ZM96.8443 57.656C97.1003 57.1547 97.4629 56.7653 97.9323 56.488C98.4123 56.2107 98.9936 56.072 99.6763 56.072V57.576H99.2923C97.6603 57.576 96.8443 58.4613 96.8443 60.232V65H95.3883V56.232H96.8443V57.656ZM113.623 60.28C113.623 60.5573 113.607 60.8507 113.575 61.16H106.567C106.62 62.024 106.913 62.7013 107.447 63.192C107.991 63.672 108.647 63.912 109.415 63.912C110.044 63.912 110.567 63.768 110.983 63.48C111.409 63.1813 111.708 62.7867 111.879 62.296H113.447C113.212 63.1387 112.743 63.8267 112.039 64.36C111.335 64.8827 110.46 65.144 109.415 65.144C108.583 65.144 107.836 64.9573 107.175 64.584C106.524 64.2107 106.012 63.6827 105.639 63C105.265 62.3067 105.079 61.5067 105.079 60.6C105.079 59.6933 105.26 58.8987 105.623 58.216C105.985 57.5333 106.492 57.0107 107.143 56.648C107.804 56.2747 108.561 56.088 109.415 56.088C110.247 56.088 110.983 56.2693 111.623 56.632C112.263 56.9947 112.753 57.496 113.095 58.136C113.447 58.7653 113.623 59.48 113.623 60.28ZM112.119 59.976C112.119 59.4213 111.996 58.9467 111.751 58.552C111.505 58.1467 111.169 57.8427 110.743 57.64C110.327 57.4267 109.863 57.32 109.351 57.32C108.615 57.32 107.985 57.5547 107.463 58.024C106.951 58.4933 106.657 59.144 106.583 59.976H112.119ZM121.625 58.52V59.752H115.241V58.52H121.625ZM134.901 56.072C135.584 56.072 136.192 56.216 136.725 56.504C137.258 56.7813 137.68 57.2027 137.989 57.768C138.298 58.3333 138.453 59.0213 138.453 59.832V65H137.013V60.04C137.013 59.1653 136.794 58.4987 136.357 58.04C135.93 57.5707 135.349 57.336 134.613 57.336C133.856 57.336 133.253 57.5813 132.805 58.072C132.357 58.552 132.133 59.2507 132.133 60.168V65H130.693V60.04C130.693 59.1653 130.474 58.4987 130.037 58.04C129.61 57.5707 129.029 57.336 128.293 57.336C127.536 57.336 126.933 57.5813 126.485 58.072C126.037 58.552 125.813 59.2507 125.813 60.168V65H124.357V56.232H125.813V57.496C126.101 57.0373 126.485 56.6853 126.965 56.44C127.456 56.1947 127.994 56.072 128.581 56.072C129.317 56.072 129.968 56.2373 130.533 56.568C131.098 56.8987 131.52 57.384 131.797 58.024C132.042 57.4053 132.448 56.9253 133.013 56.584C133.578 56.2427 134.208 56.072 134.901 56.072ZM140.297 60.584C140.297 59.688 140.479 58.904 140.841 58.232C141.204 57.5493 141.7 57.0213 142.329 56.648C142.969 56.2747 143.679 56.088 144.457 56.088C145.225 56.088 145.892 56.2533 146.457 56.584C147.023 56.9147 147.444 57.3307 147.721 57.832V56.232H149.193V65H147.721V63.368C147.433 63.88 147.001 64.3067 146.425 64.648C145.86 64.9787 145.199 65.144 144.441 65.144C143.663 65.144 142.959 64.952 142.329 64.568C141.7 64.184 141.204 63.6453 140.841 62.952C140.479 62.2587 140.297 61.4693 140.297 60.584ZM147.721 60.6C147.721 59.9387 147.588 59.3627 147.321 58.872C147.055 58.3813 146.692 58.008 146.233 57.752C145.785 57.4853 145.289 57.352 144.745 57.352C144.201 57.352 143.705 57.48 143.257 57.736C142.809 57.992 142.452 58.3653 142.185 58.856C141.919 59.3467 141.785 59.9227 141.785 60.584C141.785 61.256 141.919 61.8427 142.185 62.344C142.452 62.8347 142.809 63.2133 143.257 63.48C143.705 63.736 144.201 63.864 144.745 63.864C145.289 63.864 145.785 63.736 146.233 63.48C146.692 63.2133 147.055 62.8347 147.321 62.344C147.588 61.8427 147.721 61.2613 147.721 60.6ZM152.406 54.808C152.129 54.808 151.894 54.712 151.702 54.52C151.51 54.328 151.414 54.0933 151.414 53.816C151.414 53.5387 151.51 53.304 151.702 53.112C151.894 52.92 152.129 52.824 152.406 52.824C152.673 52.824 152.897 52.92 153.078 53.112C153.27 53.304 153.366 53.5387 153.366 53.816C153.366 54.0933 153.27 54.328 153.078 54.52C152.897 54.712 152.673 54.808 152.406 54.808ZM153.11 56.232V65H151.654V56.232H153.11ZM157.047 53.16V65H155.591V53.16H157.047ZM167.619 65.144C166.797 65.144 166.051 64.9573 165.379 64.584C164.717 64.2107 164.195 63.6827 163.811 63C163.437 62.3067 163.251 61.5067 163.251 60.6C163.251 59.704 163.443 58.9147 163.827 58.232C164.221 57.5387 164.755 57.0107 165.427 56.648C166.099 56.2747 166.851 56.088 167.683 56.088C168.515 56.088 169.267 56.2747 169.939 56.648C170.611 57.0107 171.139 57.5333 171.523 58.216C171.917 58.8987 172.115 59.6933 172.115 60.6C172.115 61.5067 171.912 62.3067 171.507 63C171.112 63.6827 170.573 64.2107 169.891 64.584C169.208 64.9573 168.451 65.144 167.619 65.144ZM167.619 63.864C168.141 63.864 168.632 63.7413 169.091 63.496C169.549 63.2507 169.917 62.8827 170.195 62.392C170.483 61.9013 170.627 61.304 170.627 60.6C170.627 59.896 170.488 59.2987 170.211 58.808C169.933 58.3173 169.571 57.9547 169.123 57.72C168.675 57.4747 168.189 57.352 167.667 57.352C167.133 57.352 166.643 57.4747 166.195 57.72C165.757 57.9547 165.405 58.3173 165.139 58.808C164.872 59.2987 164.739 59.896 164.739 60.6C164.739 61.3147 164.867 61.9173 165.123 62.408C165.389 62.8987 165.741 63.2667 166.179 63.512C166.616 63.7467 167.096 63.864 167.619 63.864ZM175.485 57.656C175.741 57.1547 176.104 56.7653 176.573 56.488C177.053 56.2107 177.634 56.072 178.317 56.072V57.576H177.933C176.301 57.576 175.485 58.4613 175.485 60.232V65H174.029V56.232H175.485V57.656ZM185.719 57.848C186.007 57.3467 186.434 56.9307 186.999 56.6C187.575 56.2587 188.242 56.088 188.999 56.088C189.778 56.088 190.482 56.2747 191.111 56.648C191.751 57.0213 192.253 57.5493 192.615 58.232C192.978 58.904 193.159 59.688 193.159 60.584C193.159 61.4693 192.978 62.2587 192.615 62.952C192.253 63.6453 191.751 64.184 191.111 64.568C190.482 64.952 189.778 65.144 188.999 65.144C188.253 65.144 187.591 64.9787 187.015 64.648C186.45 64.3067 186.018 63.8853 185.719 63.384V69.16H184.263V56.232H185.719V57.848ZM191.671 60.584C191.671 59.9227 191.538 59.3467 191.271 58.856C191.005 58.3653 190.642 57.992 190.183 57.736C189.735 57.48 189.239 57.352 188.695 57.352C188.162 57.352 187.666 57.4853 187.207 57.752C186.759 58.008 186.397 58.3867 186.119 58.888C185.853 59.3787 185.719 59.9493 185.719 60.6C185.719 61.2613 185.853 61.8427 186.119 62.344C186.397 62.8347 186.759 63.2133 187.207 63.48C187.666 63.736 188.162 63.864 188.695 63.864C189.239 63.864 189.735 63.736 190.183 63.48C190.642 63.2133 191.005 62.8347 191.271 62.344C191.538 61.8427 191.671 61.256 191.671 60.584ZM199.428 56.072C200.089 56.072 200.686 56.216 201.22 56.504C201.753 56.7813 202.169 57.2027 202.468 57.768C202.777 58.3333 202.932 59.0213 202.932 59.832V65H201.492V60.04C201.492 59.1653 201.273 58.4987 200.836 58.04C200.398 57.5707 199.801 57.336 199.044 57.336C198.276 57.336 197.662 57.576 197.204 58.056C196.756 58.536 196.532 59.2347 196.532 60.152V65H195.076V53.16H196.532V57.48C196.82 57.032 197.214 56.6853 197.716 56.44C198.228 56.1947 198.798 56.072 199.428 56.072ZM209.134 65.144C208.313 65.144 207.566 64.9573 206.894 64.584C206.233 64.2107 205.71 63.6827 205.326 63C204.953 62.3067 204.766 61.5067 204.766 60.6C204.766 59.704 204.958 58.9147 205.342 58.232C205.737 57.5387 206.27 57.0107 206.942 56.648C207.614 56.2747 208.366 56.088 209.198 56.088C210.03 56.088 210.782 56.2747 211.454 56.648C212.126 57.0107 212.654 57.5333 213.038 58.216C213.433 58.8987 213.63 59.6933 213.63 60.6C213.63 61.5067 213.427 62.3067 213.022 63C212.627 63.6827 212.089 64.2107 211.406 64.584C210.723 64.9573 209.966 65.144 209.134 65.144ZM209.134 63.864C209.657 63.864 210.147 63.7413 210.606 63.496C211.065 63.2507 211.433 62.8827 211.71 62.392C211.998 61.9013 212.142 61.304 212.142 60.6C212.142 59.896 212.003 59.2987 211.726 58.808C211.449 58.3173 211.086 57.9547 210.638 57.72C210.19 57.4747 209.705 57.352 209.182 57.352C208.649 57.352 208.158 57.4747 207.71 57.72C207.273 57.9547 206.921 58.3173 206.654 58.808C206.387 59.2987 206.254 59.896 206.254 60.6C206.254 61.3147 206.382 61.9173 206.638 62.408C206.905 62.8987 207.257 63.2667 207.694 63.512C208.131 63.7467 208.611 63.864 209.134 63.864ZM219.817 56.072C220.883 56.072 221.747 56.3973 222.409 57.048C223.07 57.688 223.401 58.616 223.401 59.832V65H221.961V60.04C221.961 59.1653 221.742 58.4987 221.305 58.04C220.867 57.5707 220.27 57.336 219.513 57.336C218.745 57.336 218.131 57.576 217.673 58.056C217.225 58.536 217.001 59.2347 217.001 60.152V65H215.545V56.232H217.001V57.48C217.289 57.032 217.678 56.6853 218.169 56.44C218.67 56.1947 219.219 56.072 219.817 56.072ZM233.779 60.28C233.779 60.5573 233.763 60.8507 233.731 61.16H226.723C226.776 62.024 227.07 62.7013 227.603 63.192C228.147 63.672 228.803 63.912 229.571 63.912C230.2 63.912 230.723 63.768 231.139 63.48C231.566 63.1813 231.864 62.7867 232.035 62.296H233.603C233.368 63.1387 232.899 63.8267 232.195 64.36C231.491 64.8827 230.616 65.144 229.571 65.144C228.739 65.144 227.992 64.9573 227.331 64.584C226.68 64.2107 226.168 63.6827 225.795 63C225.422 62.3067 225.235 61.5067 225.235 60.6C225.235 59.6933 225.416 58.8987 225.779 58.216C226.142 57.5333 226.648 57.0107 227.299 56.648C227.96 56.2747 228.718 56.088 229.571 56.088C230.403 56.088 231.139 56.2693 231.779 56.632C232.419 56.9947 232.91 57.496 233.251 58.136C233.603 58.7653 233.779 59.48 233.779 60.28ZM232.275 59.976C232.275 59.4213 232.152 58.9467 231.907 58.552C231.662 58.1467 231.326 57.8427 230.899 57.64C230.483 57.4267 230.019 57.32 229.507 57.32C228.771 57.32 228.142 57.5547 227.619 58.024C227.107 58.4933 226.814 59.144 226.739 59.976H232.275ZM244.238 56.072C245.305 56.072 246.169 56.3973 246.83 57.048C247.492 57.688 247.822 58.616 247.822 59.832V65H246.382V60.04C246.382 59.1653 246.164 58.4987 245.726 58.04C245.289 57.5707 244.692 57.336 243.934 57.336C243.166 57.336 242.553 57.576 242.094 58.056C241.646 58.536 241.422 59.2347 241.422 60.152V65H239.966V56.232H241.422V57.48C241.71 57.032 242.1 56.6853 242.59 56.44C243.092 56.1947 243.641 56.072 244.238 56.072ZM257.977 56.232V65H256.521V63.704C256.243 64.152 255.854 64.504 255.353 64.76C254.862 65.0053 254.318 65.128 253.721 65.128C253.038 65.128 252.425 64.9893 251.881 64.712C251.337 64.424 250.905 63.9973 250.585 63.432C250.275 62.8667 250.121 62.1787 250.121 61.368V56.232H251.561V61.176C251.561 62.04 251.779 62.7067 252.217 63.176C252.654 63.6347 253.251 63.864 254.009 63.864C254.787 63.864 255.401 63.624 255.849 63.144C256.297 62.664 256.521 61.9653 256.521 61.048V56.232H257.977ZM270.979 56.072C271.662 56.072 272.27 56.216 272.803 56.504C273.336 56.7813 273.758 57.2027 274.067 57.768C274.376 58.3333 274.531 59.0213 274.531 59.832V65H273.091V60.04C273.091 59.1653 272.872 58.4987 272.435 58.04C272.008 57.5707 271.427 57.336 270.691 57.336C269.934 57.336 269.331 57.5813 268.883 58.072C268.435 58.552 268.211 59.2507 268.211 60.168V65H266.771V60.04C266.771 59.1653 266.552 58.4987 266.115 58.04C265.688 57.5707 265.107 57.336 264.371 57.336C263.614 57.336 263.011 57.5813 262.563 58.072C262.115 58.552 261.891 59.2507 261.891 60.168V65H260.435V56.232H261.891V57.496C262.179 57.0373 262.563 56.6853 263.043 56.44C263.534 56.1947 264.072 56.072 264.659 56.072C265.395 56.072 266.046 56.2373 266.611 56.568C267.176 56.8987 267.598 57.384 267.875 58.024C268.12 57.4053 268.526 56.9253 269.091 56.584C269.656 56.2427 270.286 56.072 270.979 56.072ZM278.376 57.864C278.674 57.3413 279.112 56.9147 279.688 56.584C280.264 56.2533 280.92 56.088 281.656 56.088C282.445 56.088 283.154 56.2747 283.784 56.648C284.413 57.0213 284.909 57.5493 285.272 58.232C285.634 58.904 285.816 59.688 285.816 60.584C285.816 61.4693 285.634 62.2587 285.272 62.952C284.909 63.6453 284.407 64.184 283.767 64.568C283.138 64.952 282.434 65.144 281.656 65.144C280.898 65.144 280.232 64.9787 279.656 64.648C279.09 64.3173 278.664 63.896 278.376 63.384V65H276.92V53.16H278.376V57.864ZM284.328 60.584C284.328 59.9227 284.194 59.3467 283.928 58.856C283.661 58.3653 283.298 57.992 282.84 57.736C282.392 57.48 281.896 57.352 281.352 57.352C280.818 57.352 280.322 57.4853 279.864 57.752C279.416 58.008 279.053 58.3867 278.776 58.888C278.509 59.3787 278.376 59.9493 278.376 60.6C278.376 61.2613 278.509 61.8427 278.776 62.344C279.053 62.8347 279.416 63.2133 279.864 63.48C280.322 63.736 280.818 63.864 281.352 63.864C281.896 63.864 282.392 63.736 282.84 63.48C283.298 63.2133 283.661 62.8347 283.928 62.344C284.194 61.8427 284.328 61.256 284.328 60.584ZM295.732 60.28C295.732 60.5573 295.716 60.8507 295.684 61.16H288.676C288.729 62.024 289.023 62.7013 289.556 63.192C290.1 63.672 290.756 63.912 291.524 63.912C292.153 63.912 292.676 63.768 293.092 63.48C293.519 63.1813 293.817 62.7867 293.988 62.296H295.556C295.321 63.1387 294.852 63.8267 294.148 64.36C293.444 64.8827 292.569 65.144 291.524 65.144C290.692 65.144 289.945 64.9573 289.284 64.584C288.633 64.2107 288.121 63.6827 287.748 63C287.375 62.3067 287.188 61.5067 287.188 60.6C287.188 59.6933 287.369 58.8987 287.732 58.216C288.095 57.5333 288.601 57.0107 289.252 56.648C289.913 56.2747 290.671 56.088 291.524 56.088C292.356 56.088 293.092 56.2693 293.732 56.632C294.372 56.9947 294.863 57.496 295.204 58.136C295.556 58.7653 295.732 59.48 295.732 60.28ZM294.228 59.976C294.228 59.4213 294.105 58.9467 293.86 58.552C293.615 58.1467 293.279 57.8427 292.852 57.64C292.436 57.4267 291.972 57.32 291.46 57.32C290.724 57.32 290.095 57.5547 289.572 58.024C289.06 58.4933 288.767 59.144 288.692 59.976H294.228ZM299.11 57.656C299.366 57.1547 299.729 56.7653 300.198 56.488C300.678 56.2107 301.259 56.072 301.942 56.072V57.576H301.558C299.926 57.576 299.11 58.4613 299.11 60.232V65H297.654V56.232H299.11V57.656Z" fill="#7B8389"/>
<defs>
<clipPath id="clip0_0_629">
<rect width="16" height="16" fill="white" transform="translate(424 4)"/>
</clipPath>
</defs>
</svg>
